<svg width="512" height="512" viewBox="0 0 512 512" fill="none" xmlns="http://www.w3.org/2000/svg">
  <!-- Black rounded background -->
  <rect width="512" height="512" rx="80" fill="#000000"/>
  
  <!-- Clutch fist logo centered and scaled -->
  <g transform="translate(45, 45) scale(10)">
    <path d="M33.5938 12.7656H31.5781V10.75C31.5771 9.58316 31.2384 8.44155 30.6031 7.46287C29.9677 6.48419 29.0628 5.71023 27.9974 5.23436C26.932 4.75849 25.7517 4.60102 24.5988 4.78096C23.4459 4.96089 22.3697 5.47054 21.5 6.24843C20.732 5.56137 19.8012 5.08196 18.7959 4.8557C17.7906 4.62944 16.7442 4.66384 15.7559 4.95562C14.7677 5.24741 13.8703 5.7869 13.1492 6.52291C12.428 7.25891 11.9068 8.16701 11.6352 9.16101C10.7181 8.79734 9.72593 8.6636 8.74527 8.77144C7.7646 8.87928 6.82522 9.22544 6.00906 9.77971C5.1929 10.334 4.52475 11.0795 4.0629 11.9513C3.60104 12.8231 3.35951 13.7947 3.35938 14.7812V21.5C3.35938 26.3112 5.27061 30.9253 8.67264 34.3274C12.0747 37.7294 16.6888 39.6406 21.5 39.6406C26.3112 39.6406 30.9253 37.7294 34.3274 34.3274C37.7294 30.9253 39.6406 26.3112 39.6406 21.5V18.8125C39.6406 17.2088 39.0035 15.6707 37.8695 14.5367C36.7355 13.4027 35.1975 12.7656 33.5938 12.7656ZM23.5156 10.75C23.5156 10.2154 23.728 9.70273 24.106 9.32473C24.484 8.94673 24.9967 8.73437 25.5312 8.73437C26.0658 8.73437 26.5785 8.94673 26.9565 9.32473C27.3345 9.70273 27.5469 10.2154 27.5469 10.75V12.7656H23.5156V10.75ZM15.4531 10.75C15.4531 10.2154 15.6655 9.70273 16.0435 9.32473C16.4215 8.94673 16.9342 8.73437 17.4688 8.73437C18.0033 8.73437 18.516 8.94673 18.894 9.32473C19.272 9.70273 19.4844 10.2154 19.4844 10.75V17.4687C19.4844 18.0033 19.272 18.516 18.894 18.894C18.516 19.272 18.0033 19.4844 17.4688 19.4844C16.9342 19.4844 16.4215 19.272 16.0435 18.894C15.6655 18.516 15.4531 18.0033 15.4531 17.4687V10.75ZM7.39062 14.7812C7.39063 14.2467 7.60298 13.734 7.98099 13.356C8.35899 12.978 8.87167 12.7656 9.40625 12.7656C9.94083 12.7656 10.4535 12.978 10.8315 13.356C11.2095 13.734 11.4219 14.2467 11.4219 14.7812V17.4687C11.4219 18.0033 11.2095 18.516 10.8315 18.894C10.4535 19.272 9.94083 19.4844 9.40625 19.4844C8.87167 19.4844 8.35899 19.272 7.98099 18.894C7.60298 18.516 7.39063 18.0033 7.39062 17.4687V14.7812ZM35.6094 21.5C35.6113 25.0955 34.2405 28.5561 31.7769 31.175C29.3134 33.7939 25.9429 35.3735 22.354 35.5911C18.7651 35.8087 15.2284 34.648 12.4665 32.3459C9.70452 30.0439 7.92561 26.7743 7.49309 23.2049C8.50465 23.5427 9.58765 23.6064 10.6318 23.3895C11.676 23.1726 12.6441 22.683 13.4375 21.9703C14.4265 22.8595 15.6819 23.3967 17.008 23.4981C18.3341 23.5996 19.6565 23.2597 20.7693 22.5313C21.0791 22.9303 21.4374 23.2892 21.8359 23.5996C20.3221 25.2157 19.4812 27.3481 19.4844 29.5625C19.4844 30.0971 19.6967 30.6098 20.0747 30.9878C20.4527 31.3658 20.9654 31.5781 21.5 31.5781C22.0346 31.5781 22.5473 31.3658 22.9253 30.9878C23.3033 30.6098 23.5156 30.0971 23.5156 29.5625C23.5156 28.3151 24.0111 27.1189 24.8931 26.2369C25.7751 25.3549 26.9714 24.8594 28.2188 24.8594C28.7533 24.8594 29.266 24.647 29.644 24.269C30.022 23.891 30.2344 23.3783 30.2344 22.8437C30.2344 22.3092 30.022 21.7965 29.644 21.4185C29.266 21.0405 28.7533 20.8281 28.2188 20.8281H25.5312C24.9967 20.8281 24.484 20.6158 24.106 20.2378C23.728 19.8598 23.5156 19.3471 23.5156 18.8125V16.7969H33.5938C34.1283 16.7969 34.641 17.0092 35.019 17.3872C35.397 17.7652 35.6094 18.2779 35.6094 18.8125V21.5Z" fill="#35B450"/>
  </g>
</svg>
