<svg width="355" height="355" viewBox="0 0 355 355" fill="none" xmlns="http://www.w3.org/2000/svg">
<rect width="355" height="355" rx="40" ry="40" fill="black"/>
<path d="M102.236 138.184C123.783 138.184 141.249 120.682 141.249 99.0921C141.249 77.5021 123.783 60 102.236 60C80.6903 60 63.2236 77.5021 63.2236 99.0921C63.2236 120.682 80.6903 138.184 102.236 138.184Z" fill="#00D4FF"/>
<path d="M102.013 216.59C123.559 216.59 141.026 199.088 141.026 177.498C141.026 155.908 123.559 138.406 102.013 138.406C80.4666 138.406 63 155.908 63 177.498C63 199.088 80.4666 216.59 102.013 216.59Z" fill="#8B5CF6"/>
<path opacity="0.9" d="M102.236 295.001C123.783 295.001 141.249 277.498 141.249 255.909C141.249 234.319 123.783 216.816 102.236 216.816C80.6903 216.816 63.2236 234.319 63.2236 255.909C63.2236 277.498 80.6903 295.001 102.236 295.001Z" fill="#84CC16"/>
<path d="M102.381 175.705L232.5 175.703" stroke="white" stroke-width="8.91722"/>
<path d="M177.8 136.642C185.028 136.642 191.244 138.067 196.448 140.916C201.652 143.766 205.637 147.958 208.405 153.493C211.172 158.986 212.555 165.615 212.555 173.38C212.555 181.144 211.172 187.794 208.405 193.329C205.637 198.822 201.652 203.014 196.448 205.905C191.244 208.755 185.028 210.18 177.8 210.18H148.62C147.629 210.18 146.865 210.014 146.328 209.684C145.791 209.354 145.378 208.734 145.089 207.825C144.841 206.917 144.717 205.595 144.717 203.861C144.717 202.126 144.841 200.804 145.089 199.896C145.378 198.987 145.791 198.367 146.328 198.037C146.865 197.665 147.629 197.479 148.62 197.479H154.63V149.342H148.62C147.629 149.342 146.865 149.177 146.328 148.846C145.791 148.516 145.378 147.896 145.089 146.988C144.841 146.079 144.717 144.758 144.717 143.023C144.717 141.288 144.841 139.967 145.089 139.058C145.378 138.149 145.791 137.53 146.328 137.199C146.865 136.828 147.629 136.642 148.62 136.642H177.8ZM170.118 196.86H176.561C182.963 196.86 187.795 194.877 191.058 190.912C194.321 186.906 195.952 181.062 195.952 173.38C195.952 165.698 194.321 159.874 191.058 155.909C187.795 151.944 182.963 149.962 176.561 149.962H170.118V196.86ZM257.347 136.642C266.062 136.642 272.753 138.562 277.42 142.403C282.087 146.244 284.421 151.82 284.421 159.131C284.421 168.671 279.299 174.681 269.056 177.159C271.287 178.026 273.063 179.307 274.384 181C275.252 182.115 276.036 183.292 276.739 184.531C277.482 185.729 278.329 187.257 279.279 189.116C280.27 191.098 281.034 192.523 281.571 193.39C282.397 194.753 283.223 195.786 284.049 196.488C284.875 197.149 285.804 197.479 286.837 197.479H288.014C289.005 197.479 289.769 197.665 290.306 198.037C290.843 198.367 291.236 198.987 291.483 199.896C291.772 200.804 291.917 202.126 291.917 203.861C291.917 205.595 291.772 206.917 291.483 207.825C291.236 208.734 290.843 209.354 290.306 209.684C289.769 210.014 289.005 210.18 288.014 210.18H282.005C278.742 210.18 276.098 209.519 274.075 208.197C272.051 206.876 270.192 204.666 268.499 201.568C267.673 200.123 266.682 198.14 265.525 195.621C264.699 193.721 263.914 192.089 263.171 190.727C262.427 189.322 261.601 187.959 260.693 186.638C259.412 184.862 257.988 183.581 256.418 182.797C254.849 182.012 252.969 181.619 250.78 181.619H246.815V197.479H252.825C253.816 197.479 254.58 197.665 255.117 198.037C255.654 198.367 256.046 198.987 256.294 199.896C256.583 200.804 256.728 202.126 256.728 203.861C256.728 205.595 256.583 206.917 256.294 207.825C256.046 208.734 255.654 209.354 255.117 209.684C254.58 210.014 253.816 210.18 252.825 210.18H224.698C223.707 210.18 222.943 210.014 222.406 209.684C221.869 209.354 221.456 208.734 221.167 207.825C220.919 206.917 220.795 205.595 220.795 203.861C220.795 202.126 220.919 200.804 221.167 199.896C221.456 198.987 221.869 198.367 222.406 198.037C222.943 197.665 223.707 197.479 224.698 197.479H231.327V149.342H224.698C223.707 149.342 222.943 149.177 222.406 148.846C221.869 148.516 221.456 147.896 221.167 146.988C220.919 146.079 220.795 144.758 220.795 143.023C220.795 141.288 220.919 139.967 221.167 139.058C221.456 138.149 221.869 137.53 222.406 137.199C222.943 136.828 223.707 136.642 224.698 136.642H257.347ZM246.815 168.3H256.046C260.259 168.3 263.377 167.556 265.401 166.069C267.425 164.541 268.437 162.228 268.437 159.131C268.437 156.033 267.425 153.741 265.401 152.254C263.377 150.726 260.259 149.962 256.046 149.962H246.815V168.3Z" fill="white"/>
</svg>
